<svg width="221" height="196" viewBox="0 0 221 196" fill="none" xmlns="http://www.w3.org/2000/svg">
<path d="M110.499 195.369C164.449 195.369 208.184 151.635 208.184 97.6848C208.184 43.735 164.449 0 110.499 0C56.5494 0 12.8145 43.735 12.8145 97.6848C12.8145 151.635 56.5494 195.369 110.499 195.369Z" fill="white"/>
<path opacity="0.1" d="M110.499 195.369C164.449 195.369 208.184 151.635 208.184 97.6848C208.184 43.735 164.449 0 110.499 0C56.5494 0 12.8145 43.735 12.8145 97.6848C12.8145 151.635 56.5494 195.369 110.499 195.369Z" fill="#F15A24"/>
<path d="M47.0138 132.574L0.297852 132.433L0.490064 68.97L32.7931 69.0679L47.1623 83.5246L47.0138 132.574Z" fill="white"/>
<path opacity="0.3" d="M32.7928 69.0678L32.749 83.4808L47.162 83.5245L32.7928 69.0678Z" fill="black"/>
<path d="M47.456 83.5067C47.4542 83.4806 47.4491 83.4549 47.4408 83.4302C47.4375 83.4207 47.4351 83.4114 47.431 83.4019C47.4171 83.3696 47.3974 83.34 47.373 83.3147L33.0037 68.858C32.9784 68.8332 32.9489 68.813 32.9165 68.7985C32.9075 68.7947 32.8983 68.7913 32.8889 68.7884C32.8639 68.7797 32.8379 68.7745 32.8115 68.7729C32.8053 68.7729 32.7996 68.7691 32.7934 68.7691L0.490648 68.6724C0.411735 68.6724 0.336053 68.7037 0.280253 68.7595C0.224453 68.8153 0.193105 68.891 0.193105 68.9699L0 132.432C0 132.511 0.0313482 132.586 0.0871482 132.642C0.142948 132.698 0.218629 132.729 0.297543 132.729L47.0117 132.872C47.0907 132.872 47.1663 132.841 47.2221 132.785C47.2779 132.729 47.3093 132.653 47.3093 132.574L47.4581 83.5245C47.4595 83.5189 47.4563 83.5132 47.456 83.5067ZM33.0867 69.7873L39.7219 76.4602L46.4446 83.224L33.0475 83.1832L33.0867 69.7873ZM0.595085 132.136L0.785513 69.2683L32.4931 69.3644L32.4506 83.4799C32.4506 83.5588 32.4819 83.6345 32.5377 83.6903C32.5935 83.7461 32.6692 83.7774 32.7481 83.7774L46.8636 83.8203L46.7169 132.275L0.595085 132.136Z" fill="black"/>
<path d="M142.251 130.035L78.5459 129.842L78.808 43.2997L122.858 43.4333L142.453 63.1473L142.251 130.035Z" fill="white"/>
<path opacity="0.3" d="M122.858 43.4332L122.799 63.0876L142.453 63.1472L122.858 43.4332Z" fill="black"/>
<path d="M142.747 63.1294C142.745 63.1034 142.74 63.0778 142.732 63.0532C142.729 63.0434 142.726 63.0341 142.722 63.0234C142.708 62.9912 142.689 62.9616 142.664 62.9363L123.069 43.2223C123.044 43.1974 123.015 43.1772 122.982 43.1628C122.973 43.1586 122.964 43.1562 122.955 43.1529C122.93 43.1443 122.904 43.139 122.877 43.1372C122.871 43.1372 122.865 43.1336 122.859 43.1336L78.8087 43C78.7298 43 78.6541 43.0313 78.5983 43.0871C78.5425 43.1429 78.5112 43.2186 78.5112 43.2975L78.249 129.84C78.249 129.919 78.2804 129.994 78.3362 130.05C78.392 130.106 78.4677 130.137 78.5466 130.137L142.25 130.33C142.329 130.33 142.405 130.299 142.461 130.243C142.517 130.187 142.548 130.112 142.548 130.033L142.751 63.1451C142.751 63.1416 142.747 63.1359 142.747 63.1294ZM123.153 44.1524L141.735 62.8476L123.096 62.7911L123.153 44.1524ZM78.8441 129.545L79.1045 43.5981L122.56 43.7299L122.5 63.0868C122.5 63.1657 122.532 63.2414 122.587 63.2972C122.643 63.353 122.719 63.3844 122.798 63.3844L142.155 63.4439L141.954 129.736L78.8441 129.545Z" fill="black"/>
<path d="M220.553 132.574L173.837 132.433L174.029 68.9698L206.332 69.0677L220.701 83.5245L220.553 132.574Z" fill="white"/>
<path opacity="0.3" d="M206.332 69.0677L206.288 83.4807L220.701 83.5245L206.332 69.0677Z" fill="black"/>
<path d="M220.995 83.5066C220.994 83.4806 220.989 83.4549 220.98 83.4302C220.977 83.4206 220.974 83.4114 220.97 83.4019C220.956 83.3696 220.937 83.3401 220.912 83.3147L206.543 68.858C206.518 68.8331 206.488 68.813 206.456 68.7985C206.447 68.7943 206.438 68.7916 206.428 68.7884C206.403 68.7797 206.377 68.7745 206.351 68.7729C206.345 68.7729 206.339 68.769 206.333 68.769L174.03 68.6711C173.951 68.6711 173.875 68.7025 173.819 68.7583C173.764 68.8141 173.732 68.8898 173.732 68.9687L173.54 132.432C173.54 132.51 173.571 132.586 173.627 132.642C173.683 132.698 173.759 132.729 173.838 132.729L220.554 132.871C220.632 132.871 220.708 132.839 220.764 132.784C220.82 132.728 220.851 132.652 220.851 132.573L221 83.5233C220.999 83.5188 220.995 83.5132 220.995 83.5066ZM206.627 69.7872L213.26 76.4602L219.984 83.224L206.587 83.1832L206.627 69.7872ZM174.135 132.136L174.326 69.2683L206.034 69.3644L205.991 83.4798C205.991 83.5588 206.022 83.6344 206.078 83.6902C206.134 83.746 206.21 83.7774 206.288 83.7774L220.404 83.8202L220.257 132.275L174.135 132.136Z" fill="black"/>
<path d="M94.5885 92.0216C97.0514 92.0216 99.048 90.025 99.048 87.562C99.048 85.0991 97.0514 83.1025 94.5885 83.1025C92.1255 83.1025 90.1289 85.0991 90.1289 87.562C90.1289 90.025 92.1255 92.0216 94.5885 92.0216Z" fill="#2E3192"/>
<path d="M125.168 92.0216C127.631 92.0216 129.627 90.025 129.627 87.562C129.627 85.0991 127.631 83.1025 125.168 83.1025C122.705 83.1025 120.708 85.0991 120.708 87.562C120.708 90.025 122.705 92.0216 125.168 92.0216Z" fill="#2E3192"/>
<path d="M115.857 99.8952H103.899C103.82 99.8952 103.745 99.8639 103.689 99.8081C103.633 99.7523 103.602 99.6766 103.602 99.5977C103.602 99.5187 103.633 99.4431 103.689 99.3873C103.745 99.3315 103.82 99.3001 103.899 99.3001H115.857C115.936 99.3001 116.011 99.3315 116.067 99.3873C116.123 99.4431 116.154 99.5187 116.154 99.5977C116.154 99.6766 116.123 99.7523 116.067 99.8081C116.011 99.8639 115.936 99.8952 115.857 99.8952Z" fill="#2E3192"/>
<path d="M89.9879 100.319C92.185 100.319 93.9661 99.3812 93.9661 98.2248C93.9661 97.0684 92.185 96.131 89.9879 96.131C87.7908 96.131 86.0098 97.0684 86.0098 98.2248C86.0098 99.3812 87.7908 100.319 89.9879 100.319Z" fill="white"/>
<path d="M129.768 100.319C131.965 100.319 133.746 99.3812 133.746 98.2248C133.746 97.0685 131.965 96.131 129.768 96.131C127.571 96.131 125.79 97.0685 125.79 98.2248C125.79 99.3812 127.571 100.319 129.768 100.319Z" fill="white"/>
<g opacity="0.4">
<path opacity="0.4" d="M89.9879 100.319C92.185 100.319 93.9661 99.3812 93.9661 98.2248C93.9661 97.0684 92.185 96.131 89.9879 96.131C87.7908 96.131 86.0098 97.0684 86.0098 98.2248C86.0098 99.3812 87.7908 100.319 89.9879 100.319Z" fill="#2E3192"/>
<path opacity="0.4" d="M129.768 100.319C131.965 100.319 133.746 99.3812 133.746 98.2248C133.746 97.0685 131.965 96.131 129.768 96.131C127.571 96.131 125.79 97.0685 125.79 98.2248C125.79 99.3812 127.571 100.319 129.768 100.319Z" fill="#2E3192"/>
</g>
<path d="M142.549 62.1457C134.956 53.4275 124.21 48.0827 112.676 47.2868C101.142 46.4909 89.7641 50.3092 81.0451 57.9018C66.4786 70.5882 62.0024 91.6798 70.1619 109.198C71.8003 112.708 73.901 115.984 76.4082 118.937L76.9438 119.571L37.0159 161.945C36.2858 162.731 35.8961 163.774 35.932 164.846C35.9678 165.919 36.4261 166.934 37.2071 167.669C37.9881 168.405 39.0283 168.802 40.1009 168.774C41.1735 168.746 42.1915 168.295 42.9329 167.519L82.8509 125.152L83.5177 125.652C92.132 132.113 102.833 135.158 113.558 134.199C124.284 133.24 134.275 128.345 141.606 120.458C148.938 112.571 153.091 102.25 153.265 91.4831C153.439 80.7162 149.623 70.2659 142.55 62.1457H142.549ZM145.052 93.2175C144.434 102.17 140.445 110.555 133.89 116.683C127.335 122.811 118.701 126.227 109.727 126.241C108.898 126.241 108.067 126.212 107.233 126.152C101.408 125.757 95.7709 123.93 90.8211 120.834C85.8713 117.738 81.7619 113.469 78.8575 108.404C75.953 103.34 74.3432 97.6365 74.1708 91.8008C73.9983 85.965 75.2686 80.1769 77.869 74.9497C80.4694 69.7225 84.3195 65.2178 89.0778 61.835C93.8362 58.4522 99.3558 56.2958 105.147 55.5572C110.939 54.8186 116.823 55.5205 122.278 57.6006C127.733 59.6808 132.59 63.075 136.42 67.4821C139.487 70.9888 141.83 75.0686 143.311 79.4859C144.793 83.9031 145.385 88.5702 145.052 93.2175Z" fill="black"/>
</svg>
