<svg width="546" height="483" viewBox="0 0 546 483" fill="none" xmlns="http://www.w3.org/2000/svg">
<path d="M272.95 435.718C380.415 435.718 467.533 348.6 467.533 241.134C467.533 133.668 380.415 46.5504 272.95 46.5504C165.484 46.5504 78.3662 133.668 78.3662 241.134C78.3662 348.6 165.484 435.718 272.95 435.718Z" fill="white"/>
<path opacity="0.1" d="M272.95 435.718C380.415 435.718 467.533 348.6 467.533 241.134C467.533 133.668 380.415 46.5504 272.95 46.5504C165.484 46.5504 78.3662 133.668 78.3662 241.134C78.3662 348.6 165.484 435.718 272.95 435.718Z" fill="#F15A24"/>
<path d="M146.49 307.224L53.4336 306.942L53.8165 180.526L118.163 180.721L146.785 209.519L146.49 307.224Z" fill="white"/>
<path opacity="0.3" d="M118.163 180.721L118.076 209.431L146.786 209.518L118.163 180.721Z" fill="#333333"/>
<path d="M147.371 209.482C147.367 209.431 147.357 209.379 147.341 209.33C147.334 209.311 147.329 209.293 147.321 209.274C147.293 209.209 147.254 209.15 147.206 209.1L118.583 180.303C118.532 180.253 118.474 180.213 118.409 180.184C118.391 180.177 118.373 180.17 118.354 180.164C118.304 180.147 118.252 180.137 118.2 180.134C118.187 180.134 118.176 180.126 118.164 180.126L53.8182 179.933C53.661 179.933 53.5102 179.996 53.3991 180.107C53.2879 180.218 53.2255 180.369 53.2255 180.526L52.8408 306.939C52.8408 307.096 52.9033 307.247 53.0144 307.358C53.1256 307.469 53.2763 307.532 53.4335 307.532L146.486 307.816C146.643 307.816 146.794 307.753 146.905 307.642C147.016 307.531 147.079 307.38 147.079 307.223L147.375 209.518C147.378 209.507 147.372 209.495 147.371 209.482ZM118.748 182.154L131.965 195.446L145.356 208.919L118.67 208.838L118.748 182.154ZM54.0262 306.35L54.4055 181.12L117.566 181.312L117.481 209.429C117.481 209.586 117.543 209.737 117.655 209.848C117.766 209.959 117.916 210.022 118.074 210.022L146.191 210.107L145.899 306.627L54.0262 306.35Z" fill="#333333"/>
<path d="M336.197 302.164L209.3 301.78L209.822 129.392L297.568 129.658L336.6 168.927L336.197 302.164Z" fill="white"/>
<path opacity="0.3" d="M297.569 129.658L297.45 168.809L336.601 168.928L297.569 129.658Z" fill="#333333"/>
<path d="M337.186 168.893C337.183 168.841 337.173 168.79 337.156 168.741C337.15 168.721 337.145 168.703 337.136 168.682C337.109 168.617 337.07 168.558 337.021 168.508L297.989 129.239C297.939 129.189 297.88 129.149 297.815 129.12C297.797 129.112 297.779 129.107 297.76 129.1C297.711 129.083 297.659 129.073 297.606 129.069C297.594 129.069 297.582 129.062 297.57 129.062L209.824 128.796C209.667 128.796 209.516 128.858 209.405 128.969C209.294 129.081 209.231 129.231 209.231 129.388L208.709 301.776C208.709 301.934 208.771 302.084 208.883 302.195C208.994 302.307 209.144 302.369 209.302 302.369L336.197 302.754C336.354 302.754 336.505 302.691 336.616 302.58C336.727 302.469 336.79 302.318 336.79 302.161L337.193 168.924C337.193 168.917 337.187 168.906 337.186 168.893ZM298.156 131.091L335.17 168.331L298.043 168.219L298.156 131.091ZM209.894 301.19L210.413 129.987L296.974 130.25L296.855 168.808C296.855 168.965 296.918 169.116 297.029 169.227C297.14 169.338 297.291 169.4 297.448 169.4L336.006 169.519L335.606 301.571L209.894 301.19Z" fill="#333333"/>
<path d="M492.171 307.224L399.115 306.942L399.498 180.527L463.844 180.722L492.467 209.519L492.171 307.224Z" fill="white"/>
<path opacity="0.3" d="M463.845 180.722L463.758 209.432L492.468 209.519L463.845 180.722Z" fill="#333333"/>
<path d="M493.053 209.484C493.05 209.432 493.04 209.381 493.023 209.332C493.017 209.313 493.011 209.294 493.003 209.275C492.975 209.211 492.936 209.152 492.888 209.102L464.265 180.305C464.214 180.255 464.156 180.215 464.091 180.186C464.073 180.178 464.055 180.172 464.036 180.166C463.986 180.149 463.935 180.138 463.882 180.135C463.87 180.135 463.859 180.127 463.846 180.127L399.5 179.932C399.343 179.932 399.192 179.995 399.081 180.106C398.97 180.217 398.907 180.368 398.907 180.525L398.524 306.94C398.524 307.097 398.587 307.248 398.698 307.359C398.809 307.47 398.96 307.533 399.117 307.533L492.173 307.815C492.33 307.815 492.481 307.753 492.592 307.641C492.703 307.53 492.766 307.38 492.766 307.222L493.062 209.517C493.06 209.508 493.053 209.497 493.053 209.484ZM464.432 182.156L477.645 195.448L491.038 208.921L464.352 208.84L464.432 182.156ZM399.71 306.352L400.09 181.122L463.25 181.313L463.165 209.431C463.165 209.588 463.228 209.739 463.339 209.85C463.45 209.961 463.601 210.023 463.758 210.023L491.875 210.109L491.583 306.628L399.71 306.352Z" fill="#333333"/>
<path d="M241.254 229.851C246.16 229.851 250.138 225.874 250.138 220.968C250.138 216.062 246.16 212.084 241.254 212.084C236.348 212.084 232.371 216.062 232.371 220.968C232.371 225.874 236.348 229.851 241.254 229.851Z" fill="#F15A24"/>
<path d="M302.166 229.851C307.073 229.851 311.05 225.874 311.05 220.968C311.05 216.062 307.073 212.084 302.166 212.084C297.26 212.084 293.283 216.062 293.283 220.968C293.283 225.874 297.26 229.851 302.166 229.851Z" fill="#F15A24"/>
<path d="M283.62 245.535H259.801C259.644 245.535 259.493 245.472 259.382 245.361C259.27 245.25 259.208 245.099 259.208 244.942C259.208 244.785 259.27 244.634 259.382 244.523C259.493 244.412 259.644 244.349 259.801 244.349H283.62C283.777 244.349 283.928 244.412 284.039 244.523C284.15 244.634 284.212 244.785 284.212 244.942C284.212 245.099 284.15 245.25 284.039 245.361C283.928 245.472 283.777 245.535 283.62 245.535Z" fill="#F15A24"/>
<path d="M232.091 246.379C236.468 246.379 240.016 244.512 240.016 242.208C240.016 239.905 236.468 238.037 232.091 238.037C227.715 238.037 224.167 239.905 224.167 242.208C224.167 244.512 227.715 246.379 232.091 246.379Z" fill="white"/>
<path d="M311.331 246.379C315.707 246.379 319.255 244.512 319.255 242.208C319.255 239.905 315.707 238.037 311.331 238.037C306.954 238.037 303.406 239.905 303.406 242.208C303.406 244.512 306.954 246.379 311.331 246.379Z" fill="white"/>
<g opacity="0.4">
<path opacity="0.4" d="M232.091 246.379C236.468 246.379 240.016 244.512 240.016 242.208C240.016 239.905 236.468 238.037 232.091 238.037C227.715 238.037 224.167 239.905 224.167 242.208C224.167 244.512 227.715 246.379 232.091 246.379Z" fill="#333333"/>
<path opacity="0.4" d="M311.331 246.379C315.707 246.379 319.255 244.512 319.255 242.208C319.255 239.905 315.707 238.037 311.331 238.037C306.954 238.037 303.406 239.905 303.406 242.208C303.406 244.512 306.954 246.379 311.331 246.379Z" fill="#333333"/>
</g>
<path d="M336.791 170.341C321.665 152.975 300.26 142.328 277.285 140.743C254.31 139.158 231.646 146.764 214.278 161.888C185.262 187.158 176.346 229.172 192.599 264.068C195.863 271.06 200.047 277.584 205.042 283.467L206.108 284.731L126.574 369.137C125.12 370.703 124.343 372.78 124.415 374.916C124.486 377.053 125.399 379.074 126.955 380.54C128.51 382.005 130.582 382.796 132.719 382.74C134.856 382.684 136.883 381.786 138.36 380.241L217.875 295.848L219.203 296.842C236.363 309.713 257.678 315.778 279.043 313.868C300.407 311.958 320.309 302.208 334.913 286.497C349.517 270.787 357.79 250.227 358.137 228.78C358.484 207.333 350.881 186.516 336.793 170.341H336.791ZM341.777 232.235C340.546 250.067 332.601 266.77 319.543 278.977C306.486 291.184 289.286 297.988 271.411 298.017C269.761 298.017 268.105 297.958 266.443 297.839C254.84 297.052 243.611 293.413 233.751 287.246C223.892 281.079 215.706 272.574 209.92 262.486C204.135 252.397 200.928 241.037 200.585 229.413C200.241 217.788 202.772 206.259 207.951 195.846C213.131 185.434 220.8 176.461 230.279 169.722C239.757 162.984 250.752 158.689 262.288 157.217C273.824 155.746 285.545 157.144 296.412 161.288C307.278 165.431 316.954 172.192 324.581 180.971C330.692 187.956 335.358 196.083 338.31 204.882C341.261 213.681 342.44 222.978 341.777 232.235Z" fill="#333333"/>
</svg>
