<svg width="201" height="142" viewBox="0 0 201 142" fill="none" xmlns="http://www.w3.org/2000/svg">
<g clip-path="url(#clip0_304_1740)">
<path d="M44.3806 71.4702C44.2344 71.4702 44.0943 71.4122 43.991 71.3088C43.8876 71.2055 43.8296 71.0654 43.8296 70.9192V55.3737C43.8296 55.2276 43.8876 55.0875 43.991 54.9841C44.0943 54.8808 44.2344 54.8228 44.3806 54.8228C44.5267 54.8228 44.6668 54.8808 44.7702 54.9841C44.8735 55.0875 44.9315 55.2276 44.9315 55.3737V70.9187C44.9316 70.9911 44.9174 71.0628 44.8897 71.1297C44.8621 71.1967 44.8215 71.2575 44.7703 71.3087C44.7192 71.3599 44.6584 71.4005 44.5915 71.4282C44.5246 71.4559 44.453 71.4702 44.3806 71.4702Z" fill="#333333"/>
<path d="M49.4525 63.6977H39.3085C39.1624 63.6977 39.0223 63.6396 38.9189 63.5363C38.8156 63.4329 38.7576 63.2928 38.7576 63.1467C38.7576 63.0005 38.8156 62.8604 38.9189 62.7571C39.0223 62.6538 39.1624 62.5957 39.3085 62.5957H49.4525C49.5987 62.5957 49.7388 62.6538 49.8421 62.7571C49.9454 62.8604 50.0035 63.0005 50.0035 63.1467C50.0035 63.2928 49.9454 63.4329 49.8421 63.5363C49.7388 63.6396 49.5987 63.6977 49.4525 63.6977Z" fill="#333333"/>
<path d="M177.558 110.435C177.455 110.435 177.356 110.394 177.284 110.321C177.211 110.248 177.17 110.149 177.17 110.046V101.708C177.172 101.607 177.214 101.511 177.287 101.44C177.359 101.369 177.457 101.33 177.558 101.33C177.66 101.33 177.757 101.369 177.83 101.44C177.902 101.511 177.944 101.607 177.947 101.708V110.046C177.947 110.097 177.937 110.148 177.917 110.195C177.898 110.242 177.869 110.285 177.833 110.321C177.797 110.357 177.754 110.386 177.707 110.405C177.66 110.425 177.609 110.435 177.558 110.435Z" fill="#333333"/>
<path d="M180.279 106.266H174.838C174.786 106.267 174.734 106.258 174.686 106.239C174.638 106.22 174.594 106.192 174.557 106.156C174.519 106.12 174.49 106.076 174.47 106.028C174.45 105.981 174.439 105.929 174.439 105.877C174.439 105.826 174.45 105.774 174.47 105.726C174.49 105.679 174.519 105.635 174.557 105.599C174.594 105.563 174.638 105.535 174.686 105.516C174.734 105.497 174.786 105.488 174.838 105.489H180.279C180.331 105.488 180.382 105.497 180.431 105.516C180.479 105.535 180.523 105.563 180.56 105.599C180.597 105.635 180.627 105.679 180.647 105.726C180.667 105.774 180.677 105.826 180.677 105.877C180.677 105.929 180.667 105.981 180.647 106.028C180.627 106.076 180.597 106.12 180.56 106.156C180.523 106.192 180.479 106.22 180.431 106.239C180.382 106.258 180.331 106.267 180.279 106.266Z" fill="#333333"/>
<path d="M160.691 13.5771C160.64 13.5771 160.589 13.567 160.542 13.5475C160.495 13.528 160.452 13.4993 160.416 13.4632C160.38 13.4271 160.351 13.3843 160.332 13.3371C160.312 13.29 160.302 13.2395 160.302 13.1884V4.85057C160.302 4.74749 160.343 4.64863 160.416 4.57575C160.489 4.50286 160.588 4.46191 160.691 4.46191C160.794 4.46191 160.893 4.50286 160.966 4.57575C161.039 4.64863 161.08 4.74749 161.08 4.85057V13.1884C161.08 13.2915 161.039 13.3903 160.966 13.4632C160.893 13.5361 160.794 13.5771 160.691 13.5771Z" fill="#333333"/>
<path d="M163.411 9.40804H157.97C157.869 9.40545 157.773 9.36339 157.702 9.29081C157.631 9.21822 157.592 9.12087 157.592 9.01951C157.592 8.91815 157.631 8.8208 157.702 8.74821C157.773 8.67563 157.869 8.63357 157.97 8.63099H163.411C163.463 8.62966 163.515 8.63874 163.563 8.65767C163.611 8.6766 163.655 8.70501 163.693 8.74122C163.73 8.77742 163.759 8.8207 163.779 8.8685C163.8 8.91629 163.81 8.96764 163.81 9.01951C163.81 9.07138 163.8 9.12273 163.779 9.17052C163.759 9.21832 163.73 9.2616 163.693 9.2978C163.655 9.33401 163.611 9.36242 163.563 9.38135C163.515 9.40028 163.463 9.40936 163.411 9.40804Z" fill="#333333"/>
<path d="M187.708 141.886H48.3014C48.2011 141.886 48.105 141.846 48.0341 141.775C47.9632 141.704 47.9233 141.608 47.9233 141.507C47.9233 141.407 47.9632 141.311 48.0341 141.24C48.105 141.169 48.2011 141.129 48.3014 141.129H187.708C187.809 141.129 187.905 141.169 187.976 141.24C188.047 141.311 188.086 141.407 188.086 141.507C188.086 141.608 188.047 141.704 187.976 141.775C187.905 141.846 187.809 141.886 187.708 141.886Z" fill="#333333"/>
<path d="M149.686 126.294H82.5304C82.4122 126.293 82.2978 126.252 82.2073 126.176C82.1167 126.1 82.0558 125.994 82.0351 125.878L60.096 1.00591H39.2606C39.133 0.997334 39.0135 0.940619 38.9262 0.84724C38.8389 0.753861 38.7903 0.630795 38.7903 0.502953C38.7903 0.375111 38.8389 0.252044 38.9262 0.158665C39.0135 0.0652865 39.133 0.00857107 39.2606 0L60.5184 0C60.6366 0.000244563 60.751 0.0420277 60.8415 0.118046C60.9321 0.194064 60.993 0.299482 61.0137 0.415872L82.9521 125.288H149.686C149.813 125.296 149.933 125.353 150.02 125.446C150.107 125.54 150.156 125.663 150.156 125.791C150.156 125.919 150.107 126.042 150.02 126.135C149.933 126.228 149.813 126.285 149.686 126.294H149.686Z" fill="#333333"/>
<path d="M159.168 91.7079H76.3973C76.3284 91.7126 76.2593 91.703 76.1942 91.6798C76.1292 91.6566 76.0696 91.6203 76.0192 91.5732C75.9687 91.526 75.9285 91.469 75.901 91.4057C75.8736 91.3423 75.8594 91.274 75.8594 91.205C75.8594 91.1359 75.8736 91.0676 75.901 91.0043C75.9285 90.941 75.9687 90.8839 76.0192 90.8368C76.0696 90.7896 76.1292 90.7533 76.1942 90.7301C76.2593 90.707 76.3284 90.6974 76.3973 90.702H158.787L174.867 33.2134H66.5643C66.4367 33.2049 66.3172 33.1481 66.2299 33.0548C66.1426 32.9614 66.094 32.8383 66.094 32.7105C66.094 32.5826 66.1426 32.4596 66.2299 32.3662C66.3172 32.2728 66.4367 32.2161 66.5643 32.2075H175.53C175.608 32.2075 175.684 32.2255 175.754 32.26C175.823 32.2945 175.884 32.3447 175.931 32.4065C175.978 32.4683 176.01 32.5402 176.024 32.6164C176.039 32.6927 176.035 32.7712 176.014 32.8459L159.652 91.3407C159.623 91.4463 159.559 91.5392 159.472 91.6055C159.385 91.6717 159.278 91.7077 159.168 91.7079Z" fill="#333333"/>
<path d="M119.727 91.2148C119.593 91.2148 119.465 91.1617 119.37 91.0671C119.276 90.9726 119.223 90.8444 119.223 90.7107V33.6984C119.232 33.5712 119.289 33.4522 119.382 33.3652C119.475 33.2783 119.598 33.23 119.725 33.23C119.853 33.23 119.976 33.2783 120.069 33.3652C120.162 33.4522 120.219 33.5712 120.228 33.6984V90.7107C120.228 90.8439 120.176 90.9718 120.082 91.0662C119.988 91.1607 119.86 91.2141 119.727 91.2148Z" fill="#333333"/>
<path d="M133.459 91.2145C133.444 91.2145 133.429 91.2145 133.415 91.2125C133.349 91.2068 133.285 91.1882 133.226 91.1578C133.168 91.1274 133.116 91.0857 133.073 91.0351C133.031 90.9846 132.999 90.9261 132.979 90.8631C132.959 90.8002 132.951 90.7339 132.957 90.6681L137.902 33.6559C137.907 33.5898 137.926 33.5255 137.956 33.4666C137.986 33.4077 138.028 33.3553 138.079 33.3126C138.129 33.2698 138.188 33.2375 138.251 33.2174C138.314 33.1974 138.381 33.19 138.447 33.1957C138.513 33.2015 138.577 33.2202 138.636 33.2508C138.694 33.2814 138.747 33.3234 138.789 33.3742C138.832 33.4251 138.864 33.4838 138.883 33.5471C138.903 33.6103 138.91 33.6768 138.904 33.7428L133.959 90.755C133.948 90.8803 133.891 90.997 133.798 91.0821C133.706 91.1672 133.585 91.2144 133.459 91.2145Z" fill="#333333"/>
<path d="M147.19 91.2146C147.161 91.2147 147.132 91.2121 147.104 91.207C147.039 91.1957 146.977 91.1718 146.921 91.1364C146.865 91.1011 146.817 91.0551 146.779 91.0011C146.741 90.9471 146.714 90.8861 146.699 90.8217C146.685 90.7573 146.683 90.6906 146.694 90.6255L156.584 33.6133C156.608 33.4827 156.682 33.3668 156.791 33.2908C156.9 33.2148 157.034 33.1849 157.165 33.2076C157.296 33.2303 157.412 33.3038 157.489 33.4121C157.566 33.5203 157.596 33.6546 157.575 33.7855L147.685 90.7977C147.665 90.9142 147.604 91.0198 147.514 91.096C147.423 91.1722 147.309 91.2142 147.19 91.2146Z" fill="#333333"/>
<path d="M105.995 91.2146C105.869 91.2145 105.748 91.1672 105.655 91.0821C105.563 90.9971 105.505 90.8804 105.494 90.7551L100.55 33.7429C100.539 33.6104 100.581 33.4791 100.667 33.3775C100.752 33.276 100.875 33.2126 101.007 33.2011C101.14 33.1896 101.271 33.231 101.373 33.3162C101.475 33.4014 101.539 33.5236 101.551 33.6559L106.496 90.6681C106.502 90.7339 106.495 90.8002 106.475 90.8632C106.455 90.9261 106.423 90.9846 106.38 91.0352C106.338 91.0857 106.286 91.1274 106.227 91.1578C106.169 91.1883 106.105 91.2069 106.039 91.2125C106.024 91.2125 106.009 91.2146 105.995 91.2146Z" fill="#333333"/>
<path d="M92.2631 91.2147C92.1447 91.2146 92.0302 91.1728 91.9397 91.0965C91.8492 91.0202 91.7885 90.9145 91.7683 90.7979L81.7073 32.7966C81.6955 32.7313 81.6966 32.6644 81.7108 32.5996C81.725 32.5347 81.7518 32.4734 81.7898 32.419C81.8278 32.3646 81.8762 32.3183 81.9322 32.2827C81.9881 32.2471 82.0506 32.2229 82.116 32.2115C82.1813 32.2002 82.2483 32.2019 82.313 32.2165C82.3777 32.2311 82.4389 32.2584 82.493 32.2968C82.5471 32.3352 82.5931 32.3839 82.6283 32.4402C82.6635 32.4964 82.6872 32.559 82.6981 32.6245L92.7591 90.6245C92.7705 90.6895 92.7689 90.7562 92.7544 90.8206C92.74 90.8851 92.713 90.946 92.675 91C92.6369 91.054 92.5887 91.1 92.5329 91.1353C92.4771 91.1707 92.4149 91.1947 92.3498 91.2059C92.3212 91.2115 92.2922 91.2144 92.2631 91.2147Z" fill="#333333"/>
<path d="M170.248 52.0398H69.6289C69.5601 52.0444 69.491 52.0348 69.4259 52.0116C69.3609 51.9885 69.3013 51.9522 69.2509 51.905C69.2004 51.8578 69.1602 51.8008 69.1327 51.7375C69.1052 51.6742 69.0911 51.6058 69.0911 51.5368C69.0911 51.4678 69.1052 51.3994 69.1327 51.3361C69.1602 51.2728 69.2004 51.2158 69.2509 51.1686C69.3013 51.1214 69.3609 51.0852 69.4259 51.062C69.491 51.0388 69.5601 51.0292 69.6289 51.0338H170.248C170.376 51.0424 170.496 51.0991 170.583 51.1925C170.67 51.2859 170.719 51.409 170.719 51.5368C170.719 51.6646 170.67 51.7877 170.583 51.8811C170.496 51.9745 170.376 52.0312 170.248 52.0398Z" fill="#333333"/>
<path d="M164.881 71.8189H73.4271C73.2995 71.8104 73.18 71.7536 73.0927 71.6603C73.0054 71.5669 72.9568 71.4438 72.9568 71.316C72.9568 71.1881 73.0054 71.065 73.0927 70.9717C73.18 70.8783 73.2995 70.8216 73.4271 70.813H164.881C165.008 70.8216 165.128 70.8783 165.215 70.9717C165.303 71.065 165.351 71.1881 165.351 71.316C165.351 71.4438 165.303 71.5669 165.215 71.6603C165.128 71.7536 165.008 71.8104 164.881 71.8189Z" fill="#333333"/>
<path d="M89.8742 127.197C91.1672 127.197 92.4312 127.581 93.5063 128.299C94.5814 129.018 95.4194 130.039 95.9142 131.233C96.4089 132.428 96.5384 133.742 96.286 135.011C96.0337 136.279 95.411 137.444 94.4967 138.358C93.5823 139.272 92.4174 139.895 91.1492 140.147C89.881 140.399 88.5665 140.269 87.3719 139.774C86.1773 139.28 85.1564 138.442 84.4381 137.366C83.7199 136.291 83.3366 135.027 83.3367 133.734C83.3386 132.001 84.028 130.339 85.2536 129.113C86.4792 127.888 88.141 127.199 89.8742 127.197V127.197ZM89.8742 126.191C88.3823 126.191 86.9239 126.633 85.6835 127.462C84.443 128.291 83.4762 129.469 82.9053 130.847C82.3343 132.226 82.1849 133.742 82.476 135.206C82.7671 136.669 83.4855 138.013 84.5404 139.068C85.5953 140.123 86.9394 140.841 88.4026 141.132C89.8658 141.423 91.3825 141.274 92.7609 140.703C94.1392 140.132 95.3173 139.165 96.1461 137.925C96.975 136.684 97.4174 135.226 97.4174 133.734C97.4173 131.734 96.6226 129.815 95.208 128.4C93.7934 126.986 91.8748 126.191 89.8742 126.191Z" fill="#333333"/>
<path d="M141.511 127.154C142.804 127.154 144.068 127.537 145.143 128.256C146.219 128.974 147.056 129.995 147.551 131.19C148.046 132.384 148.176 133.699 147.923 134.967C147.671 136.235 147.048 137.4 146.134 138.314C145.22 139.228 144.055 139.851 142.787 140.103C141.519 140.355 140.204 140.226 139.01 139.731C137.815 139.236 136.794 138.398 136.076 137.323C135.357 136.248 134.974 134.984 134.974 133.691C134.976 131.958 135.665 130.296 136.891 129.071C138.116 127.845 139.778 127.156 141.511 127.154H141.511ZM141.511 126.148C140.019 126.148 138.561 126.591 137.32 127.42C136.08 128.248 135.113 129.427 134.542 130.805C133.971 132.183 133.822 133.7 134.113 135.163C134.404 136.626 135.123 137.97 136.178 139.025C137.233 140.08 138.577 140.799 140.04 141.09C141.503 141.381 143.02 141.231 144.398 140.66C145.776 140.089 146.955 139.123 147.783 137.882C148.612 136.642 149.055 135.183 149.055 133.691C149.055 132.701 148.86 131.72 148.48 130.805C148.101 129.889 147.546 129.058 146.845 128.357C146.145 127.657 145.313 127.101 144.398 126.722C143.483 126.343 142.502 126.148 141.511 126.148L141.511 126.148Z" fill="#333333"/>
<path opacity="0.1" d="M53.2234 141.234C34.8666 141.234 21.5456 122.591 26.8344 104.049C29.8252 93.5641 35.7669 83.3324 47.066 77.1271C77.9864 60.1457 75.2626 64.8022 89.8377 36.2661C104.413 7.72998 141.605 4.64648 162.304 24.7477C191.58 53.1782 174.196 72.1409 192.723 91.6829C192.916 91.8865 193.106 92.0912 193.294 92.2969C210.033 110.631 197.437 141.235 173.307 141.235L53.2234 141.234Z" fill="#333333"/>
<path d="M61.7432 110.424H16.8737C16.7734 110.424 16.6772 110.384 16.6063 110.313C16.5354 110.242 16.4956 110.146 16.4956 110.046C16.4956 109.946 16.5354 109.85 16.6063 109.779C16.6772 109.708 16.7734 109.668 16.8737 109.668H61.7432C61.8435 109.668 61.9396 109.708 62.0105 109.779C62.0814 109.85 62.1213 109.946 62.1213 110.046C62.1213 110.146 62.0814 110.242 62.0105 110.313C61.9396 110.384 61.8435 110.424 61.7432 110.424Z" fill="#333333"/>
<path d="M22.5691 127.575H1.31508C1.21481 127.575 1.11865 127.536 1.04774 127.465C0.976843 127.394 0.937012 127.298 0.937012 127.197C0.937012 127.097 0.976843 127.001 1.04774 126.93C1.11865 126.859 1.21481 126.819 1.31508 126.819H22.5691C22.6694 126.819 22.7656 126.859 22.8365 126.93C22.9074 127.001 22.9472 127.097 22.9472 127.197C22.9472 127.298 22.9074 127.394 22.8365 127.465C22.7656 127.536 22.6694 127.575 22.5691 127.575Z" fill="#333333"/>
</g>
<defs>
<clipPath id="clip0_304_1740">
<rect width="200" height="141.886" fill="white" transform="translate(0.937012)"/>
</clipPath>
</defs>
</svg>
